<?xml version="1.0" encoding="UTF-8" standalone="no"?>

<!--
  - Copyright © 2020-2023 Metreeca srl
  -
  - Licensed under the Apache License, Version 2.0 (the "License");
  - you may not use this file except in compliance with the License.
  - You may obtain a copy of the License at
  -
  -     http://www.apache.org/licenses/LICENSE-2.0
  -
  - Unless required by applicable law or agreed to in writing, software
  - distributed under the License is distributed on an "AS IS" BASIS,
  - WITHOUT WARRANTIES OR CONDITIONS OF ANY KIND, either express or implied.
  - See the License for the specific language governing permissions and
  - limitations under the License.
  -->

<!DOCTYPE svg PUBLIC "-//W3C//DTD SVG 1.1//EN" "http://www.w3.org/Graphics/SVG/1.1/DTD/svg11.dtd">
<svg version="1.1" xmlns="http://www.w3.org/2000/svg" viewBox="0 0 512 512" width="512" height="512">
    <defs/>
    <g id="512x512_Background" fill-opacity="1" stroke-dasharray="none" fill="none" stroke-opacity="1" stroke="none">
        <title>512x512 Background</title>
        <g id="512x512_Background_Layer_1">
            <title>Layer 1</title>
            <g id="Graphic_6">
                <path d="M 66 0 L 446 0 C 463.6731 1082166e-21 478 14.326888 478 32 L 478 480 C 478 497.6731 463.6731 512 446 512 L 66 512 C 48.32689 512 34 497.6731 34 480 L 34 32 C 34 14.326888 48.32689 -1082166e-21 66 0 Z"
                      fill="white"/>
            </g>
            <g id="Group_3">
                <g id="Graphic_5">
                    <path d="M 225.3924 32 L 103.18244 32 C 100.0835 32 97.0715 32.370496 94.18822 33.069824 C 94.4321 33.407168 94.66544 33.75661 94.88749 34.11725 L 179.04507 171.0592 Z M 70.97742 220.49264 L 203.24493 273.78018 L 68.48969 54.50573 C 66.40692 59.18867 65.25 64.37203 65.25 69.82464 L 65.25 219.2904 C 67.16265 219.34643 69.09864 219.7358 70.97667 220.49242 Z M 259.78662 33.74541 L 201.7651 207.83194 C 201.75117 207.8745 201.73687 207.91706 201.72219 207.95917 L 235.8412 263.4777 L 409.01907 32.372288 C 407.2735 32.126784 405.4896 32 403.6763 32 L 260.2653 32 C 260.13942 32.581504 259.9809 33.16256 259.7885 33.74003 M 259.78824 33.74093 C 259.78768 33.74227 259.78708 33.743616 259.78662 33.74541 Z M 441.6087 400.59827 L 441.6087 69.82464 C 441.6087 62.94291 439.7657 56.490816 436.5452 50.931584 L 259.88128 286.68894 L 396.74338 399.99034 C 411.02167 393.89978 427.3722 394.0557 441.6087 400.59827 Z M 365.2331 435.35635 L 222.59188 317.27027 L 65.25 253.88096 L 65.25 442.17536 C 65.25 463.06515 82.23318 480 103.18244 480 L 370.6075 480 C 362.64415 466.4498 360.8064 450.18426 365.2331 435.35635 Z"
                          fill="#8393a1"/>
                </g>
                <g id="Graphic_4">
                    <path d="M 437.1934 431.6594 C 448.21815 441.92345 448.79483 459.144 438.48146 470.12264 C 428.16815 481.1013 410.8703 481.6806 399.8456 471.41647 C 388.82087 461.1524 388.2442 443.93185 398.55756 432.95323 C 408.87087 421.97456 426.1687 421.3953 437.1934 431.6594"
                          fill="#eb6900"/>
                </g>
            </g>
        </g>
    </g>
</svg>
